<?xml version="1.0" encoding="utf-8"?>
<!-- Generator: Adobe Illustrator 19.0.1, SVG Export Plug-In . SVG Version: 6.00 Build 0)  -->
<svg version="1.1" id="Layer_1" xmlns="http://www.w3.org/2000/svg" xmlns:xlink="http://www.w3.org/1999/xlink" x="0px" y="0px"
	 viewBox="0 0 396 365.2" style="enable-background:new 0 0 396 365.2;" xml:space="preserve">
<style type="text/css">
	.st0{fill:#202F66;}
	.st1{fill:#A3E8D8;stroke:#202F66;stroke-width:9.3233;stroke-miterlimit:10;}
	.st2{fill:none;stroke:#202F66;stroke-width:9.3233;stroke-linecap:round;stroke-linejoin:round;stroke-miterlimit:10;}
</style>
<path class="st0" d="M273.6,68l-16.1-24l-4.1,8.4c-49.7-19.8-108.6-9.7-148.8,30.5C91.5,96,81.6,111.1,74.9,127.2
	c-6-0.4-12.1,1.6-16.6,6.2c-8.3,8.3-8.3,21.9,0,30.2c8.3,8.3,21.9,8.3,30.2,0s8.3-21.9,0-30.2c-1.3-1.3-2.8-2.4-4.4-3.3
	c6.2-14.6,15.3-28.4,27.2-40.3c37.2-37.2,91.7-46.7,137.7-28.6l-4.3,8.8L273.6,68z M81.7,156.8c-4.6,4.6-12,4.6-16.6,0
	c-4.6-4.6-4.6-12,0-16.6c4.6-4.6,12-4.6,16.6,0C86.3,144.8,86.3,152.2,81.7,156.8z M284.4,291c5.3-3.9,10.4-8.2,15.2-13
	c48.7-48.7,53.3-125,13.8-179c6.2-8.4,5.5-20.2-2.1-27.8c-8.3-8.3-21.9-8.3-30.2,0s-8.3,21.9,0,30.2c6.7,6.7,16.9,8,24.9,3.9
	c36.3,50.1,31.9,120.7-13.2,165.8c-4.3,4.3-8.8,8.1-13.5,11.6l-5-8l-13.5,25.5l28.9-1L284.4,291z M287.9,94.6
	c-4.6-4.6-4.6-12,0-16.6c4.6-4.6,12-4.6,16.6,0c4.6,4.6,4.6,12,0,16.6C299.9,99.2,292.5,99.2,287.9,94.6z M249.2,294
	c-8.3-8.3-21.9-8.3-30.2,0c-3.9,3.9-6,9-6.2,14.2c-36.3,3-73.6-9.3-101.4-37c-20.1-20.1-32.1-45.3-36-71.4l9.6-0.6l-16-24L56.1,201
	l9.6-0.6c4.1,28.4,17,55.8,38.8,77.6c30,30,70.6,43.2,110,39.7c1,2.4,2.5,4.6,4.4,6.5c8.3,8.3,21.9,8.3,30.2,0
	C257.5,315.9,257.5,302.3,249.2,294z M225.8,317.4c-4.6-4.6-4.6-12,0-16.6c4.6-4.6,12-4.6,16.6,0c4.6,4.6,4.6,12,0,16.6
	S230.3,322,225.8,317.4z"/>
<path class="st1" d="M226.3,250h-52.8c-6.6,0-12-5.4-12-12V124.1c0-6.6,5.4-12,12-12h52.8c6.6,0,12,5.4,12,12V238
	C238.3,244.6,232.9,250,226.3,250z"/>
<circle class="st0" cx="199.9" cy="225" r="9.3"/>
<line class="st2" x1="187.5" y1="137.6" x2="212.4" y2="137.6"/>
</svg>
